<?xml version="1.0" encoding="UTF-8"?>
<svg version="1.1" xmlns="http://www.w3.org/2000/svg" width="1890" height="1417">
<path d="M0 0 C5.28280059 4.61867709 8.55918718 10.36357781 12.1875 16.3125 C13.18487183 17.92838013 13.18487183 17.92838013 14.20239258 19.5769043 C15.53334272 21.73327237 16.86176588 23.89120245 18.1875 26.05078125 C20.50188886 29.81665105 22.84105362 33.56655553 25.1875 37.3125 C25.57728027 37.93656738 25.96706055 38.56063477 26.36865234 39.20361328 C28.99833281 43.41175161 31.647038 47.60760479 34.30126953 51.80029297 C39.55665798 60.10193889 44.75953917 68.43388093 49.921875 76.79370117 C54.83781012 84.7506396 59.79617711 92.68069565 64.75830078 100.60888672 C67.9211185 105.6649462 71.0727037 110.72672264 74.1875 115.8125 C77.4360255 121.11085928 80.74326783 126.37077803 84.0625 131.625 C84.83484985 132.84848145 84.83484985 132.84848145 85.62280273 134.09667969 C87.84057733 137.60498348 90.06338493 141.1090996 92.32421875 144.58984375 C92.95972656 145.57082031 93.59523438 146.55179688 94.25 147.5625 C94.79140625 148.38878906 95.3328125 149.21507812 95.890625 150.06640625 C97 152 97 152 97 154 C97.66 154 98.32 154 99 154 C99.34224609 153.00033203 99.34224609 153.00033203 99.69140625 151.98046875 C101.38119819 148.13177846 103.61373956 144.80477768 105.9375 141.3125 C109.87743829 135.31120056 113.71731175 129.26496568 117.4375 123.125 C121.15147407 117.00456609 124.91724369 110.92179957 128.75 104.875 C133.29575867 97.70291849 137.81465998 90.51474118 142.3125 83.3125 C143.25428101 81.80465942 143.25428101 81.80465942 144.21508789 80.26635742 C146.14375098 77.17779561 148.07195855 74.08894991 150 71 C152.56193391 66.89547956 155.12433915 62.79125438 157.6875 58.6875 C158.31084229 57.68936279 158.93418457 56.69122559 159.57641602 55.6628418 C163.9292117 48.69848315 168.31355878 41.75467461 172.71240234 34.81933594 C176.14271052 29.39644793 179.48826072 23.92589506 182.8125 18.4375 C186.64654977 12.111352 190.61170549 5.96089152 195 0 C199.35355216 3.98420748 202.30291501 8.29565255 205.375 13.3125 C205.88248779 14.12847656 206.38997559 14.94445312 206.9128418 15.78515625 C208.01895328 17.56425625 209.12227351 19.34509396 210.22314453 21.12744141 C212.75326492 25.21776794 215.30504441 29.29444493 217.85595703 33.37182617 C219.12518813 35.40110719 220.39316794 37.43117157 221.65966797 39.4621582 C225.15703812 45.06925681 228.68559627 50.65501683 232.23852539 56.22705078 C235.28985249 61.03051207 238.30016948 65.85952359 241.3125 70.6875 C242.63930806 72.81250928 243.96613098 74.93750927 245.29296875 77.0625 C245.93024902 78.0834375 246.5675293 79.104375 247.22412109 80.15625 C248.72736731 82.56342788 250.23208886 84.96966505 251.73828125 87.375 C256.30755242 94.67300142 260.84920142 101.98745052 265.375 109.3125 C270.03210626 116.8487801 274.737587 124.3523622 279.47998047 131.83520508 C283.19179023 137.69996189 286.85418421 143.5940275 290.5 149.5 C295.18725231 157.09224487 299.92148789 164.65274087 304.69360352 172.19189453 C312.21719344 184.07804833 319.63722271 196.0268722 327.03173828 207.99365234 C331.25539055 214.81934282 335.53187116 221.61033545 339.82714844 228.39111328 C343.27361487 233.83634656 346.66808058 239.30995052 350.03515625 244.8046875 C353.48735912 250.41880669 356.9923194 255.99992408 360.48974609 261.5859375 C362.1785225 264.28535895 363.86479726 266.98633363 365.55078125 269.6875 C371.34659105 278.9714247 377.14745656 288.2517082 383 297.5 C388.21103784 305.73457339 393.38933198 313.98938282 398.5390625 322.26245117 C401.39869148 326.85461318 404.26958912 331.43621368 407.2109375 335.9765625 C407.68708496 336.71753174 408.16323242 337.45850098 408.65380859 338.22192383 C409.52587717 339.57620805 410.40594136 340.92539036 411.29541016 342.26831055 C412.27550721 343.79795753 413.1494985 345.39467843 414 347 C413.67 347.99 413.34 348.98 413 350 C395.86690917 350.39811653 378.73527201 350.69736927 361.59860611 350.88080692 C353.64049426 350.96826831 345.68526457 351.08735835 337.72900391 351.2824707 C330.78946412 351.45256793 323.85201147 351.56173418 316.91044497 351.59950441 C313.23760524 351.62157182 309.57073229 351.67291106 305.89981842 351.79741096 C283.61746833 352.52445891 283.61746833 352.52445891 277.60978889 348.33198547 C273.73546715 344.39622092 271.19295257 339.98247225 268.93096066 334.97734642 C267.71156043 332.38735869 266.11644621 330.19000145 264.37109375 327.9296875 C263.87971924 327.24938477 263.38834473 326.56908203 262.88208008 325.86816406 C262.40536865 325.21041992 261.92865723 324.55267578 261.4375 323.875 C260.90213623 323.13475586 260.36677246 322.39451172 259.81518555 321.63183594 C255.88350273 316.2020093 251.92019196 310.79584496 247.94848633 305.39526367 C244.56255103 300.78445812 241.22634962 296.14010934 237.90942383 291.47949219 C233.90923192 285.86150066 229.86824324 280.27334174 225.82568359 274.68579102 C222.86383493 270.58931034 219.91473622 266.4844627 216.98632812 262.36401367 C213.36722581 257.27340037 209.71935589 252.20546312 206 247.1875 C205.278125 246.21167969 204.55625 245.23585938 203.8125 244.23046875 C202.19341059 241.92499371 202.19341059 241.92499371 200 241 C199.73541992 241.72010254 199.47083984 242.44020508 199.19824219 243.18212891 C197.97660457 246.05501836 196.53527268 248.47520763 194.828125 251.0859375 C192.32773835 254.94770323 189.8507308 258.8193307 187.421875 262.7265625 C186.82415283 263.68667236 186.22643066 264.64678223 185.6105957 265.63598633 C184.99659912 266.62236084 184.38260254 267.60873535 183.75 268.625 C178.89419225 276.41141857 173.99263974 284.16240311 168.984375 291.8515625 C165.69114164 296.91284445 162.46216964 302.01195614 159.25 307.125 C152.85030352 317.29993513 146.33301224 327.40260183 139.68017578 337.4140625 C138.5700622 339.12262441 137.4993927 340.85754398 136.47216797 342.6171875 C134.10241098 346.5659965 132.84178699 348.62205482 128.5546875 350.546875 C124.30056922 350.78170955 120.87419183 350.91078218 117 349 C112.3342173 344.73020623 109.63513211 338.67118928 106.71923828 333.15576172 C103.74974329 327.70508119 100.45359486 322.45289099 97.2008667 317.16809082 C95.72834034 314.76780417 94.27113803 312.35850239 92.81845093 309.94616699 C91.81266386 308.28374733 90.79178257 306.63048934 89.77050781 304.97753906 C88 302 88 302 86.76855469 299.40527344 C85.6774981 297.19488443 84.84654836 295.63496781 83 294 C79.34149672 293.15119045 75.85295367 293.40974885 72.125 293.625 C62.02942323 293.63637072 62.02942323 293.63637072 58.421875 291.40625 C56.59609135 288.71368017 55.34662504 285.96394569 54 283 C52.17960546 279.97232738 50.23539499 277.02579759 48.3125 274.0625 C47.26508068 272.40172111 46.22085507 270.73892409 45.1796875 269.07421875 C34.64659396 252.26190503 24.10329863 235.44412582 13 219 C9.10956841 223.54507152 6.10372858 228.53223616 3 233.625 C1.836705 235.52000261 0.6726259 237.41452408 -0.4921875 239.30859375 C-1.07838867 240.26233887 -1.66458984 241.21608398 -2.26855469 242.19873047 C-4.85455042 246.38255944 -7.48815855 250.53560084 -10.125 254.6875 C-13.97453228 260.75743244 -17.7662521 266.85818242 -21.5 273 C-27.71113443 283.21381589 -34.11457078 293.30317413 -40.52050781 303.39550781 C-46.12694397 312.23240494 -51.70555277 321.08518729 -57.1875 330 C-57.65744385 330.75998291 -58.1273877 331.51996582 -58.61157227 332.30297852 C-59.04268311 333.00737061 -59.47379395 333.7117627 -59.91796875 334.4375 C-60.29719482 335.05496094 -60.6764209 335.67242188 -61.06713867 336.30859375 C-62.15273108 338.15609479 -62.15273108 338.15609479 -63 341 C-63.66 341 -64.32 341 -65 341 C-65.3403125 342.11375 -65.3403125 342.11375 -65.6875 343.25 C-67.30255694 346.63392883 -68.88581776 347.93016553 -72 350 C-74.85855389 350.49498463 -74.85855389 350.49498463 -78.05461121 350.48774719 C-79.87804298 350.49816292 -79.87804298 350.49816292 -81.73831177 350.50878906 C-83.07709101 350.49622894 -84.41586663 350.48327638 -85.75463867 350.4699707 C-87.17083395 350.47047972 -88.58702952 350.47273684 -90.0032196 350.47660828 C-93.84196851 350.482022 -97.68023377 350.46263329 -101.51889586 350.43850732 C-105.53514968 350.41720279 -109.5514019 350.41780585 -113.56770325 350.41581726 C-120.30881063 350.40937268 -127.04973636 350.3881337 -133.79077148 350.35668945 C-142.45019034 350.31635054 -151.10949101 350.29899441 -159.76899242 350.28938007 C-167.20909804 350.28108669 -174.64917851 350.26384989 -182.08926225 350.24434257 C-184.48389156 350.23827257 -186.87852184 350.23313214 -189.27315331 350.2279911 C-193.0299485 350.21922153 -196.78668492 350.20492599 -200.54344368 350.1862812 C-201.92456289 350.18014956 -203.30569073 350.1757045 -204.68682098 350.17303848 C-206.56667615 350.16906833 -208.44651339 350.15831346 -210.32633972 350.14717102 C-211.37990756 350.14289754 -212.4334754 350.13862406 -213.51896954 350.13422108 C-216 350 -216 350 -218 349 C-216.6518016 345.36222387 -215.0139723 342.20839942 -212.9453125 338.9296875 C-212.33671387 337.96071533 -211.72811523 336.99174316 -211.10107422 335.9934082 C-210.44896973 334.9643335 -209.79686523 333.93525879 -209.125 332.875 C-208.11397217 331.26854614 -208.11397217 331.26854614 -207.08251953 329.62963867 C-205.05930981 326.41702253 -203.0305758 323.20796422 -201 320 C-199.93222976 318.31123706 -198.86451591 316.62243846 -197.796875 314.93359375 C-196.33863102 312.62707447 -194.88018426 310.32068796 -193.42041016 308.01513672 C-189.74307194 302.19955366 -186.11487866 296.35457247 -182.5 290.5 C-175.91708131 279.83956533 -169.22839634 269.24809719 -162.52050781 258.66601562 C-155.6425296 247.81177709 -148.83740196 236.91533339 -142.08203125 225.984375 C-136.07819133 216.27037993 -130.02224802 206.5922525 -123.87695312 196.96704102 C-118.58704916 188.68128051 -113.35473492 180.36933019 -108.25195312 171.96704102 C-97.10441242 153.63386676 -85.59520543 135.51545818 -74.08203125 117.41015625 C-68.68673233 108.91305224 -63.39013119 100.36656275 -58.1875 91.75 C-52.73874854 82.73169069 -47.06073107 73.88727178 -41.27001953 65.08544922 C-37.00428058 58.58639785 -32.91212152 52.0141271 -28.9609375 45.3203125 C-19.87192753 29.93055458 -10.54494323 14.44360182 0 0 Z " fill="#1E1E1E" transform="translate(985,534)"/>
<path d="M0 0 C0.81683762 -0.01869141 1.63367523 -0.03738281 2.4752655 -0.05664062 C4.51489258 0.15625 4.51489258 0.15625 6.51489258 2.15625 C5.93093314 6.36580321 3.60085943 9.84083018 1.51489258 13.46875 C1.11262451 14.17515625 0.71035645 14.8815625 0.29589844 15.609375 C-8.45341225 30.90320415 -17.60868834 46.00037944 -27.48510742 60.59375 C-31.4991029 66.52809611 -35.15244169 72.6212704 -38.73730469 78.82226562 C-41.84654974 84.16383582 -45.18388927 89.3013613 -48.65820312 94.41088867 C-52.46076392 100.03481289 -55.99125004 105.80984486 -59.46728516 111.64038086 C-61.80950435 115.53782288 -64.2601319 119.30099218 -66.89526367 123.0078125 C-70.61240396 128.2572322 -73.9355824 133.70030378 -77.23510742 139.21875 C-81.37431513 146.0887155 -85.56735436 152.89956059 -89.98510742 159.59375 C-96.22013088 169.09522915 -101.84971999 178.94179374 -107.53149414 188.78027344 C-111.05869713 194.87551999 -114.61361874 200.9545217 -118.17260742 207.03125 C-118.5363446 207.65254791 -118.90008179 208.27384583 -119.27484131 208.91397095 C-123.94793395 216.89142712 -128.68230402 224.82629891 -133.53149414 232.69824219 C-142.25817893 246.88363468 -150.59024133 261.31127861 -158.97265625 275.70166016 C-163.2690843 283.07690984 -167.58059508 290.44316745 -171.89944458 297.80529785 C-174.04743996 301.46742619 -176.19385395 305.13048179 -178.34056091 308.79336548 C-180.07169588 311.7467267 -181.80386229 314.6994736 -183.53833008 317.65087891 C-185.46033688 320.92218992 -187.37925019 324.19529787 -189.29760742 327.46875 C-189.86608398 328.43425781 -190.43456055 329.39976562 -191.02026367 330.39453125 C-193.72187996 335.01088529 -196.30716755 339.63864108 -198.65136719 344.44702148 C-199.36150397 345.90285388 -200.108982 347.34037456 -200.86401367 348.7734375 C-201.25459961 349.51851562 -201.64518555 350.26359375 -202.04760742 351.03125 C-202.63735352 352.14113281 -202.63735352 352.14113281 -203.23901367 353.2734375 C-204.39478996 355.94730239 -205.23969358 358.5461281 -206.06298828 361.33642578 C-206.33018173 362.2385379 -206.59737518 363.14065002 -206.87266541 364.07009888 C-207.07477127 364.75852875 -207.27687714 365.44695862 -207.48510742 366.15625 C-185.21810549 366.23935764 -162.95607378 366.03066117 -140.69067383 365.78393555 C-136.74179874 365.74027208 -132.79291123 365.69861739 -128.84399414 365.65893555 C-90.70694469 365.27494978 -52.62299049 364.58063263 -14.53491211 362.53662109 C-11.31383856 362.36391114 -8.09253991 362.19741502 -4.87084961 362.03662109 C12.31495872 361.17862081 29.42075417 360.19694734 46.51116943 358.13150024 C55.5441949 357.05105406 64.43037234 356.83180285 73.51489258 357.15625 C74.74536133 358.7109375 74.74536133 358.7109375 75.51489258 361.15625 C74.41414524 363.74223107 73.2814419 365.90290097 71.82739258 368.28125 C71.42254639 368.9712207 71.0177002 369.66119141 70.60058594 370.37207031 C69.25803822 372.64567831 67.88978459 374.90206658 66.51489258 377.15625 C66.02569336 377.96223633 65.53649414 378.76822266 65.0324707 379.59863281 C63.08072597 382.81050922 61.12621226 386.0203076 59.14697266 389.21533203 C58.70248779 389.93317871 58.25800293 390.65102539 57.80004883 391.390625 C57.40696533 392.02194336 57.01388184 392.65326172 56.60888672 393.30371094 C55.4717135 395.17125933 55.4717135 395.17125933 54.48925781 397.27441406 C53.23107812 399.70439379 51.44772418 401.2234184 49.51489258 403.15625 C48.17088327 405.14909138 46.83947966 407.15044671 45.51489258 409.15625 C43.75267158 411.45497856 41.95910544 413.72660051 40.15942383 415.99609375 C38.38608268 418.23876701 38.38608268 418.23876701 36.70239258 421.21875 C31.59044957 428.08335918 24.75195866 432.83374359 16.51489258 435.15625 C13.4950409 435.55899728 10.53050641 435.55688123 7.48754883 435.5546875 C6.20870174 435.5542768 6.20870174 435.5542768 4.90401936 435.5538578 C-14.68437919 435.5231991 -34.2365543 435.27363291 -53.80810547 434.46337891 C-96.7925145 432.703745 -139.70545233 431.88851263 -182.72729492 431.96875 C-184.58391797 431.97190177 -184.58391797 431.97190177 -186.47804856 431.97511721 C-204.14864933 432.00631145 -221.81909289 432.06922311 -239.48957062 432.14064026 C-257.57702816 432.21358635 -275.66444478 432.28144074 -293.75202096 432.31650448 C-300.95766166 432.3313564 -308.16304536 432.36074946 -315.36858249 432.40179443 C-319.78597311 432.42406871 -324.2033284 432.43409376 -328.62076759 432.4406929 C-330.66755215 432.44632534 -332.71432975 432.45716063 -334.7610569 432.47349167 C-337.54268404 432.49500879 -340.32374255 432.49825942 -343.10543823 432.49682617 C-343.91923632 432.50761106 -344.7330344 432.51839594 -345.57149303 432.52950764 C-350.97390724 432.49948083 -350.97390724 432.49948083 -353.50761604 430.79829407 C-354.48510742 429.15625 -354.48510742 429.15625 -354.50463867 426.54296875 C-353.09853387 421.87211488 -350.7429436 418.09104764 -348.17260742 413.96875 C-347.6342627 413.08944824 -347.09591797 412.21014648 -346.54125977 411.30419922 C-344.86790199 408.5805476 -343.17935567 405.86694804 -341.48510742 403.15625 C-340.98479004 402.35396973 -340.48447266 401.55168945 -339.96899414 400.72509766 C-335.36792832 393.36308385 -330.70078467 386.04384505 -326.00463867 378.7421875 C-324.80993997 376.88064988 -323.61593243 375.01866851 -322.42260742 373.15625 C-321.54427246 371.78581543 -321.54427246 371.78581543 -320.64819336 370.38769531 C-316.22116859 363.43023745 -312.03706773 356.3552065 -308.03564453 349.14453125 C-307.62451416 348.41363281 -307.21338379 347.68273437 -306.78979492 346.9296875 C-306.43900879 346.29466309 -306.08822266 345.65963867 -305.72680664 345.00537109 C-304.48510742 343.15625 -304.48510742 343.15625 -302.56396484 341.28930664 C-300.14419482 338.80644925 -298.62961926 336.2678678 -296.91870117 333.25390625 C-296.26836914 332.11630859 -295.61803711 330.97871094 -294.94799805 329.80664062 C-294.27266593 328.61079109 -293.59753747 327.41482651 -292.92260742 326.21875 C-292.24417505 325.0263488 -291.56514386 323.8342881 -290.88549805 322.64257812 C-289.6336064 320.44586259 -288.38451467 318.24754728 -287.13916016 316.04711914 C-286.59332275 315.09313232 -286.04748535 314.13914551 -285.48510742 313.15625 C-284.96053955 312.2067749 -284.43597168 311.2572998 -283.89550781 310.27905273 C-283.43007568 309.57852783 -282.96464355 308.87800293 -282.48510742 308.15625 C-281.82510742 308.15625 -281.16510742 308.15625 -280.48510742 308.15625 C-280.22479736 307.44919922 -279.9644873 306.74214844 -279.69628906 306.01367188 C-278.39985239 302.95511618 -276.84554354 300.26733258 -275.10620117 297.4375 C-274.43693604 296.34727539 -273.7676709 295.25705078 -273.078125 294.13378906 C-272.35990735 292.97443078 -271.64139571 291.81525458 -270.92260742 290.65625 C-270.55896088 290.06678589 -270.19531433 289.47732178 -269.82064819 288.86999512 C-265.95828315 282.61068581 -262.07292045 276.39489073 -257.79760742 270.40625 C-252.03164433 262.29889013 -247.172463 253.6332258 -242.17016602 245.04248047 C-240.01310707 241.34779041 -237.83298979 237.667038 -235.65136719 233.98681641 C-229.90101588 224.28588884 -224.20250988 214.55521676 -218.53125 204.80786133 C-215.85412421 200.20819269 -213.16975756 195.61364943 -210.44995117 191.0390625 C-209.75712036 189.87177612 -209.75712036 189.87177612 -209.05029297 188.6809082 C-208.20454784 187.25835453 -207.35598036 185.837473 -206.50390625 184.41870117 C-205.02122569 181.92275396 -203.61848144 179.49896431 -202.56396484 176.78930664 C-201.38036098 173.90060611 -199.93049896 171.34552133 -198.33276367 168.6640625 C-197.72110352 167.62894531 -197.10944336 166.59382812 -196.47924805 165.52734375 C-195.19594232 163.3707673 -193.91209189 161.21451488 -192.62768555 159.05859375 C-189.5460682 153.84155491 -186.83545321 148.74732326 -184.48510742 143.15625 C-182.26785737 139.10336712 -179.87607468 135.1522242 -177.51245117 131.18359375 C-174.81223255 126.59984389 -172.55706742 122.0652873 -170.48510742 117.15625 C-168.98838995 114.30620044 -167.39233268 111.51486346 -165.79760742 108.71875 C-162.490474 102.85308583 -159.32122795 96.95400632 -156.36010742 90.90625 C-153.3061582 84.67527625 -149.9645068 78.69851884 -146.47338867 72.69921875 C-144.3779213 69.03240628 -142.52228315 65.26390326 -140.67260742 61.46875 C-137.38817874 54.76621461 -133.77569384 48.30900048 -129.98071289 41.88305664 C-127.21054605 37.18077651 -124.53849208 32.44180727 -121.94995117 27.63671875 C-121.3436084 26.52095459 -120.73726562 25.40519043 -120.11254883 24.25561523 C-118.93138724 22.07585255 -117.76240666 19.8894304 -116.60766602 17.69555664 C-112.85158154 10.80609826 -108.68691678 4.75715468 -101.48510742 1.15625 C-99.2988463 1.06938009 -97.10984125 1.04922518 -94.921875 1.05859375 C-94.24651703 1.06005402 -93.57115906 1.06151428 -92.87533569 1.0630188 C-91.40266507 1.06683193 -89.92999908 1.07295594 -88.45734596 1.08108521 C-86.10271418 1.09389649 -83.74813922 1.10038023 -81.39347839 1.10522461 C-75.52490354 1.11857935 -69.65638017 1.14236402 -63.7878418 1.16662598 C-58.06844824 1.18991204 -52.34907113 1.20840167 -46.62963867 1.21875 C-45.43576727 1.22103104 -45.43576727 1.22103104 -44.21777725 1.22335815 C-32.84664636 1.23743437 -21.51975617 1.00905025 -10.16357422 0.375 C-6.77623406 0.20346423 -3.39112417 0.06787324 0 0 Z " fill="#222222" transform="translate(952.485107421875,535.84375)"/>
<path d="M0 0 C0.33 0.66 0.66 1.32 1 2 C-5.70775819 12.19279456 -12.90227814 20.56310037 -25 24 C-28.0197476 24.40361041 -30.98439274 24.4005806 -34.02734375 24.3984375 C-35.30619084 24.3980268 -35.30619084 24.3980268 -36.61087322 24.3976078 C-56.19927176 24.3669491 -75.75144688 24.11738291 -95.32299805 23.30712891 C-138.30740708 21.547495 -181.22034491 20.73226263 -224.2421875 20.8125 C-226.09881055 20.81565177 -226.09881055 20.81565177 -227.99294114 20.81886721 C-245.66354191 20.85006145 -263.33398547 20.91297311 -281.0044632 20.98439026 C-299.09192074 21.05733635 -317.17933736 21.12519074 -335.26691353 21.16025448 C-342.47255423 21.1751064 -349.67793794 21.20449946 -356.88347507 21.24554443 C-361.30086569 21.26781871 -365.71822098 21.27784376 -370.13566017 21.2844429 C-372.18244472 21.29007534 -374.22922233 21.30091063 -376.27594948 21.31724167 C-379.05757662 21.33875879 -381.83863513 21.34200942 -384.62033081 21.34057617 C-385.43412889 21.35136106 -386.24792698 21.36214594 -387.08638561 21.37325764 C-392.46936838 21.34333883 -392.46936838 21.34333883 -395.04326057 19.67793274 C-396.56023923 17.01745061 -395.69990777 14.86325907 -395 12 C-394.67 12 -394.34 12 -394 12 C-394 13.98 -394 15.96 -394 18 C-392.84485146 17.99907821 -391.68970291 17.99815641 -390.49954987 17.99720669 C-363.02025853 17.9755045 -335.54096806 17.95903736 -308.06166992 17.94893467 C-304.67246092 17.94768411 -301.28325194 17.94638977 -297.89404297 17.94506836 C-296.88203409 17.94467489 -296.88203409 17.94467489 -295.84958059 17.94427348 C-284.95458994 17.93993339 -274.05960462 17.93205505 -263.16461712 17.9228472 C-251.96837772 17.91346435 -240.77214012 17.90800937 -229.57589674 17.90591151 C-223.29431099 17.90461196 -217.01273728 17.90157413 -210.7311554 17.89426994 C-204.80838267 17.88743933 -198.88562686 17.88539726 -192.96285057 17.88689232 C-190.79906815 17.88661914 -188.63528511 17.88465606 -186.47150612 17.88079453 C-174.59381464 17.86065237 -162.84692162 18.14232397 -151 19 C-147.82662279 19.16270048 -144.65299791 19.28238369 -141.47729492 19.38891602 C-140.65335739 19.41832275 -139.82941986 19.44772949 -138.98051453 19.47802734 C-136.3139114 19.57243482 -133.6472091 19.66346334 -130.98046875 19.75390625 C-129.0693605 19.81971244 -127.15825314 19.88554455 -125.24714661 19.95140076 C-121.25262986 20.08837398 -117.2580508 20.22334324 -113.26342773 20.35717773 C-109.24668519 20.49206564 -105.23010509 20.630762 -101.21362305 20.77319336 C-87.81069438 21.24770412 -74.40746715 21.67534262 -61 22 C-60.12293648 22.02133751 -59.24587296 22.04267502 -58.34223175 22.06465912 C-53.39238373 22.18031471 -48.44332484 22.26806221 -43.49233437 22.31501579 C-42.01711358 22.33126506 -40.54194704 22.35410374 -39.06694603 22.38430977 C-29.35868302 22.57266822 -21.23110739 21.95928968 -13.30078125 15.95703125 C-12.31658203 14.89548828 -12.31658203 14.89548828 -11.3125 13.8125 C-10.58804687 13.03648437 -9.86359375 12.26046875 -9.1171875 11.4609375 C-5.92590342 7.75151135 -2.89835098 3.94213011 0 0 Z " fill="#D1D1D1" transform="translate(994,947)"/>
<path d="M0 0 C0.66 0 1.32 0 2 0 C0.72245888 3.34699538 -0.71552371 6.45190204 -2.4765625 9.5703125 C-2.97397949 10.45243408 -3.47139648 11.33455566 -3.98388672 12.2434082 C-4.5254541 13.1943335 -5.06702148 14.14525879 -5.625 15.125 C-6.19621582 16.13199951 -6.76743164 17.13899902 -7.35595703 18.17651367 C-12.42959677 27.08028075 -17.64816815 35.89553023 -22.89257812 44.69946289 C-28.32969008 53.83566869 -33.66344178 63.02673732 -38.95263672 72.24926758 C-42.14254466 77.80635713 -45.37656603 83.32739583 -48.72167969 88.79272461 C-52.58503855 95.46358547 -55.19062435 102.84206948 -58 110 C-58.33 110 -58.66 110 -59 110 C-58.49595837 104.73108483 -57.17753029 100.68852388 -54.6875 96 C-54.34066162 95.328479 -53.99382324 94.65695801 -53.63647461 93.96508789 C-52.86138816 92.46806283 -52.08158788 90.97347183 -51.29785156 89.48095703 C-49.88797015 86.78584512 -48.50175465 84.07929244 -47.1171875 81.37109375 C-42.236256 71.8631338 -37.26293758 62.48474206 -31.6640625 53.37890625 C-28.29124675 47.88021903 -25.05971914 42.29772351 -21.8067627 36.72769165 C-19.59684076 32.94625226 -17.37948082 29.16917169 -15.16271973 25.39173889 C-13.46914458 22.50564846 -11.77717028 19.61867311 -10.08886719 16.72949219 C-8.42061218 13.87784447 -6.74314843 11.03185547 -5.0625 8.1875 C-4.57289795 7.34614502 -4.0832959 6.50479004 -3.57885742 5.63793945 C-2.90753784 4.50811646 -2.90753784 4.50811646 -2.22265625 3.35546875 C-1.83859619 2.70215576 -1.45453613 2.04884277 -1.05883789 1.37573242 C-0.70942139 0.92174072 -0.36000488 0.46774902 0 0 Z " fill="#CFCFCF" transform="translate(804,788)"/>
<path d="M0 0 C0.495 0.99 0.495 0.99 1 2 C-0.17724609 4.44482422 -0.17724609 4.44482422 -2.0234375 7.5546875 C-2.35593002 8.11939255 -2.68842255 8.6840976 -3.0309906 9.26591492 C-4.13773282 11.14043262 -5.2561566 13.00768386 -6.375 14.875 C-7.15117313 16.1831931 -7.92680075 17.49171 -8.7019043 18.80053711 C-15.38965083 30.06948913 -22.19232523 41.26979776 -29.015625 52.45703125 C-34.39300108 61.2751487 -39.69964936 70.13544441 -45 79 C-46 76 -46 76 -45.03466797 73.80541992 C-44.52564941 72.95568604 -44.01663086 72.10595215 -43.4921875 71.23046875 C-42.92443604 70.27076172 -42.35668457 69.31105469 -41.77172852 68.32226562 C-41.14580811 67.28779297 -40.5198877 66.25332031 -39.875 65.1875 C-39.23554443 64.11306641 -38.59608887 63.03863281 -37.93725586 61.93164062 C-36.60866589 59.7000157 -35.27617525 57.47070875 -33.93994141 55.24365234 C-32.1754568 52.29337013 -30.43164166 49.33246897 -28.69921875 46.36328125 C-19.53942825 30.68166316 -10.18786202 15.04043471 0 0 Z " fill="#BEBEBE" transform="translate(852,709)"/>
<path d="M0 0 C0.33 0.66 0.66 1.32 1 2 C-0.0623289 4.1457624 -1.17475988 6.14348214 -2.41015625 8.1875 C-2.77467392 8.80463867 -3.13919159 9.42177734 -3.51475525 10.05761719 C-4.68985169 12.04296492 -5.87599685 14.02145248 -7.0625 16 C-7.83601661 17.30295223 -8.60881151 18.6063332 -9.38085938 19.91015625 C-11.57668539 23.61312139 -13.78616254 27.30778182 -16 31 C-16.62632324 32.04542969 -17.25264648 33.09085938 -17.89794922 34.16796875 C-19.26395801 36.44612278 -20.63112686 38.72356632 -22 41 C-22.88530131 38.57019574 -23.1685998 37.41871649 -22.18652344 34.97973633 C-21.74856445 34.27099365 -21.31060547 33.56225098 -20.859375 32.83203125 C-20.37049805 32.02862305 -19.88162109 31.22521484 -19.37792969 30.39746094 C-18.84071289 29.54442383 -18.30349609 28.69138672 -17.75 27.8125 C-17.21020508 26.9349707 -16.67041016 26.05744141 -16.11425781 25.15332031 C-10.8773888 16.68343957 -5.47372501 8.31833801 0 0 Z " fill="#C3C3C3" transform="translate(852,709)"/>
<path d="M0 0 C0.66 0 1.32 0 2 0 C-0.21236492 5.84621058 -3.30925821 11.12992451 -6.375 16.5625 C-6.9525 17.60341797 -7.53 18.64433594 -8.125 19.71679688 C-8.97191406 21.22016602 -8.97191406 21.22016602 -9.8359375 22.75390625 C-10.34688965 23.66470947 -10.8578418 24.5755127 -11.38427734 25.51391602 C-13.02227816 28.03427901 -14.80202935 29.96072867 -17 32 C-17 28.07973481 -15.28802301 25.64133052 -13.3515625 22.36328125 C-12.97897308 21.72384079 -12.60638367 21.08440033 -12.22250366 20.42558289 C-11.43381557 19.07632999 -10.64178717 17.7290249 -9.84667969 16.38354492 C-8.62687615 14.31568054 -7.42225898 12.23948976 -6.21875 10.16210938 C-5.45142091 8.85363842 -4.68322131 7.54567748 -3.9140625 6.23828125 C-3.55253082 5.61335281 -3.19099915 4.98842438 -2.81851196 4.34455872 C-1.93485921 2.86163291 -0.97430873 1.42500303 0 0 Z " fill="#BCBCBC" transform="translate(804,788)"/>
<path d="M0 0 C0.33 0.66 0.66 1.32 1 2 C0.328125 3.953125 0.328125 3.953125 -0.75 6.25 C-1.12125 7.04792969 -1.4925 7.84585938 -1.875 8.66796875 C-3.22195704 11.46009845 -4.58537045 14.24147237 -6 17 C-6.66 17 -7.32 17 -8 17 C-8.144375 17.94875 -8.28875 18.8975 -8.4375 19.875 C-9 23 -9 23 -10 25 C-10.66 25 -11.32 25 -12 25 C-9.55089226 15.85666443 -4.74587908 8.1087871 0 0 Z " fill="#B4B4B4" transform="translate(802,616)"/>
<path d="M0 0 C1 2 1 2 0.36328125 3.91796875 C-1.56828798 8.08987107 -3.5728078 12.13220322 -5.91796875 16.09375 C-8.11845414 19.97041741 -10.03608147 23.99972332 -12 28 C-12.66 28 -13.32 28 -14 28 C-12.74241557 23.93502792 -11.23747765 20.32309788 -9.1796875 16.6015625 C-8.64472656 15.62832031 -8.10976563 14.65507813 -7.55859375 13.65234375 C-7.00300781 12.65332031 -6.44742188 11.65429688 -5.875 10.625 C-5.31167969 9.60277344 -4.74835937 8.58054687 -4.16796875 7.52734375 C-2.7830669 5.01574208 -1.39363545 2.50676281 0 0 Z " fill="#CECECE" transform="translate(817,588)"/>
<path d="M0 0 C0.66 0 1.32 0 2 0 C0.96293517 2.93835036 -0.18752054 5.27825628 -1.9375 7.875 C-3.50492243 10.24988247 -4.53028454 12.10696136 -5.5625 14.6875 C-6.81154944 17.56574436 -7.61424754 19.06867658 -10 21 C-10.33 20.34 -10.66 19.68 -11 19 C-10.13549805 17.02880859 -10.13549805 17.02880859 -8.76171875 14.6484375 C-8.27123047 13.79765625 -7.78074219 12.946875 -7.27539062 12.0703125 C-6.48938477 10.73613281 -6.48938477 10.73613281 -5.6875 9.375 C-5.17509766 8.4778125 -4.66269531 7.580625 -4.13476562 6.65625 C-1.25599828 1.7169308 -1.25599828 1.7169308 0 0 Z " fill="#DDDDDD" transform="translate(670,844)"/>
<path d="M0 0 C0.66 0.33 1.32 0.66 2 1 C0.14716813 5.34627051 -1.70178285 9.62451185 -4.125 13.6875 C-5.86698527 16.76500732 -7.00985617 19.61700857 -8 23 C-8.33 23 -8.66 23 -9 23 C-8.51051418 17.08732203 -6.69849319 12.77453032 -3.9375 7.5625 C-3.37192383 6.46518555 -3.37192383 6.46518555 -2.79492188 5.34570312 C-1.87240704 3.55906047 -0.9374688 1.77884171 0 0 Z " fill="#D3D3D3" transform="translate(754,875)"/>
<path d="M0 0 C0.33 0.66 0.66 1.32 1 2 C-0.36776121 4.53377022 -1.78109342 6.9431724 -3.3125 9.375 C-4.14317279 10.71537463 -4.97263644 12.0564995 -5.80078125 13.3984375 C-6.36019409 14.29054932 -6.36019409 14.29054932 -6.9309082 15.20068359 C-8.06080028 17.01906677 -8.06080028 17.01906677 -8.94995117 19.16259766 C-10 21 -10 21 -13 22 C-11.29816715 16.88424944 -8.32246469 12.64984185 -5.375 8.1875 C-4.859375 7.39923828 -4.34375 6.61097656 -3.8125 5.79882812 C-2.54558583 3.8632648 -1.27467036 1.93046058 0 0 Z " fill="#CBCBCB" transform="translate(1016,914)"/>
<path d="M0 0 C0.97918775 3.07556958 1.1498998 3.68592423 -0.3125 6.75 C-0.869375 7.4925 -1.42625 8.235 -2 9 C-2.66 9 -3.32 9 -4 9 C-4.20496094 9.69867187 -4.40992188 10.39734375 -4.62109375 11.1171875 C-4.89050781 12.02726563 -5.15992188 12.93734375 -5.4375 13.875 C-5.83775391 15.23238281 -5.83775391 15.23238281 -6.24609375 16.6171875 C-7 19 -7 19 -8 21 C-8.66 21 -9.32 21 -10 21 C-8.72969155 12.90178362 -4.40839056 6.72535862 0 0 Z " fill="#B2B2B2" transform="translate(775,667)"/>
<path d="M0 0 C0.625 1.8125 0.625 1.8125 1 4 C0.01 5.485 0.01 5.485 -1 7 C-1.66 7 -2.32 7 -3 7 C-4.74849671 11.3039919 -6.3770361 15.64750591 -8 20 C-8.66 20 -9.32 20 -10 20 C-9.46323088 14.9738891 -7.05581499 11.37760591 -4.4375 7.1875 C-4.01275391 6.49462891 -3.58800781 5.80175781 -3.15039062 5.08789062 C-2.10690544 3.38783049 -1.05434704 1.69334524 0 0 Z " fill="#C0C0C0" transform="translate(759,697)"/>
<path d="M0 0 C0.33 0.66 0.66 1.32 1 2 C0.14453125 4.13671875 0.14453125 4.13671875 -1.1875 6.6875 C-1.64898438 7.57566406 -2.11046875 8.46382812 -2.5859375 9.37890625 C-4.3353302 12.6215651 -6.13492528 15.82246529 -8 19 C-8.80168206 16.69932794 -9.18677067 15.47988352 -8.28735352 13.16894531 C-7.71392212 12.25773926 -7.71392212 12.25773926 -7.12890625 11.328125 C-6.71962891 10.66425781 -6.31035156 10.00039063 -5.88867188 9.31640625 C-5.45103516 8.63449219 -5.01339844 7.95257812 -4.5625 7.25 C-4.12873047 6.55261719 -3.69496094 5.85523438 -3.24804688 5.13671875 C-2.17647973 3.41750114 -1.08967644 1.707797 0 0 Z " fill="#BFBFBF" transform="translate(789,641)"/>
<path d="M0 0 C1 3 1 3 -0.21484375 5.48046875 C-0.78332031 6.37378906 -1.35179687 7.26710938 -1.9375 8.1875 C-2.50339844 9.08855469 -3.06929687 9.98960937 -3.65234375 10.91796875 C-4.09707031 11.60503906 -4.54179688 12.29210937 -5 13 C-6 10 -6 10 -4.78515625 7.51953125 C-4.21667969 6.62621094 -3.64820313 5.73289062 -3.0625 4.8125 C-2.49660156 3.91144531 -1.93070313 3.01039063 -1.34765625 2.08203125 C-0.90292969 1.39496094 -0.45820312 0.70789063 0 0 Z " fill="#B7B7B7" transform="translate(812,775)"/>
<path d="M0 0 C0 3.08401374 -0.34209098 4.03663956 -1.8125 6.625 C-2.14894531 7.23601563 -2.48539063 7.84703125 -2.83203125 8.4765625 C-4 10 -4 10 -7 11 C-3.57894737 1.78947368 -3.57894737 1.78947368 0 0 Z " fill="#C5C5C5" transform="translate(793,809)"/>
<path d="M0 0 C0 3.44360632 -0.79591532 4.74795392 -2.5 7.6875 C-2.9640625 8.49574219 -3.428125 9.30398438 -3.90625 10.13671875 C-4.2671875 10.75160156 -4.628125 11.36648438 -5 12 C-5.80576116 9.67509679 -6.17106563 8.45649006 -5.29296875 6.11328125 C-2.22222222 1.11111111 -2.22222222 1.11111111 0 0 Z " fill="#CBCBCB" transform="translate(835,738)"/>
<path d="M0 0 C0.33 1.32 0.66 2.64 1 4 C0.01 4.33 -0.98 4.66 -2 5 C-2.69658363 6.65438613 -3.36096883 8.32254318 -4 10 C-5.625 11.8125 -5.625 11.8125 -7 13 C-5.35821735 8.22390502 -2.73453298 4.20617096 0 0 Z " fill="#C7C7C7" transform="translate(612,938)"/>
<path d="M0 0 C0.6875 1.6875 0.6875 1.6875 1 4 C-0.25 6.6875 -0.25 6.6875 -2 9 C-2.99 9.33 -3.98 9.66 -5 10 C-3.66511872 6.40608886 -2.03977277 3.24509304 0 0 Z " fill="#B8B8B8" transform="translate(767,851)"/>
<path d="M0 0 C0 3.13751221 -0.35179805 4.39757586 -2 7 C-2.99 7.33 -3.98 7.66 -5 8 C-3.8141763 4.62496331 -2.72426311 2.35277269 0 0 Z " fill="#949494" transform="translate(664,857)"/>
<path d="" fill="#FEFEFE" transform="translate(0,0)"/>
<path d="" fill="#FEFEFE" transform="translate(0,0)"/>
</svg>
